<?xml version="1.0" encoding="utf-8"?>
<!-- Generator: Adobe Illustrator 28.0.0, SVG Export Plug-In . SVG Version: 6.00 Build 0)  -->
<svg version="1.1" id="Layer_1" xmlns="http://www.w3.org/2000/svg" xmlns:xlink="http://www.w3.org/1999/xlink" x="0px" y="0px"
	 viewBox="0 0 444.1 89.3" style="enable-background:new 0 0 444.1 89.3;" xml:space="preserve">
<style type="text/css">
	.st0{fill:#177E89;}
	.st1{fill:#FFC857;}
</style>
<g>
	<path class="st0" d="M12,47.2v-9.4c0-6.2,3.3-10.5,10.2-10.5h11.3c6.9,0,10.2,4.3,10.2,10.5v9.4c0,6.2-3.3,10.5-10.2,10.5H22.2
		C15.3,57.7,12,53.4,12,47.2z"/>
	<path class="st0" d="M72.4,43.1v13.3c0,0.8-0.5,1.3-1.3,1.3h-4.7c-0.8,0-1.3-0.5-1.3-1.3V42.3c0-1.6-0.6-2-1.8-2h-5.9
		c-1.2,0-1.8,0.4-1.8,2v14.2c0,0.8-0.5,1.3-1.3,1.3h-4.7c-0.8,0-1.3-0.5-1.3-1.3V34.8c0-0.8,0.5-1.3,1.3-1.3h4.7
		c0.8,0,1.3,0.4,1.3,1.2v1.3c1.1-1.6,2.9-2.5,5.7-2.5h2.2C70.2,33.5,72.4,37.2,72.4,43.1L72.4,43.1z"/>
	<path class="st0" d="M88.6,48.6V40h-1c-0.8,0-1.3-0.5-1.3-1.3v-3.9c0-0.8,0.5-1.3,1.3-1.3c2.6-0.1,3.1-0.6,3.2-4.8
		c0-0.9,0.5-1.4,1.3-1.4h2.4c0.8,0,1.3,0.5,1.3,1.3v4.9h7.7c0.8,0,1.3,0.5,1.3,1.3v3.9c0,0.8-0.5,1.3-1.3,1.3h-7.7v9.4
		c0,1.3,0.5,1.8,2.3,1.8h5.3c0.8,0,1.3,0.5,1.3,1.3v3.9c0,0.8-0.5,1.3-1.3,1.3h-5.3C90.3,57.7,88.6,54.6,88.6,48.6L88.6,48.6z"/>
	<path class="st0" d="M132.6,43.1v13.3c0,0.8-0.5,1.3-1.3,1.3h-4.7c-0.8,0-1.3-0.5-1.3-1.3V42.3c0-1.6-0.6-2-1.8-2h-5.9
		c-1.2,0-1.8,0.4-1.8,2v14.2c0,0.8-0.5,1.3-1.3,1.3h-4.7c-0.8,0-1.3-0.5-1.3-1.3V26.3c0-0.8,0.5-1.3,1.3-1.3h4.7
		c0.8,0,1.3,0.5,1.3,1.3v9.7c1.1-1.6,2.9-2.5,5.7-2.5h2.2C130.4,33.5,132.6,37.2,132.6,43.1L132.6,43.1z"/>
	<path class="st0" d="M136.7,48.2v-5.2c0-5.7,2.2-9.4,8.9-9.4h6.1c6.7,0,8.9,3.7,8.9,9.4v3.8c0,0.8-0.5,1.3-1.3,1.3h-15.4V49
		c0,1.6,0.6,2,1.9,2h11.6c0.8,0,1.3,0.5,1.3,1.3v4.1c0,0.8-0.5,1.3-1.3,1.3h-11.7C138.9,57.7,136.7,54,136.7,48.2L136.7,48.2z
		 M153.3,43.1v-0.9c0-1.6-0.6-2-1.9-2h-5.7c-1.3,0-1.9,0.4-1.9,2v0.9H153.3L153.3,43.1z"/>
</g>
<g>
	<path class="st0" d="M170.4,57.6V42.4c0-10,5.4-17,16.5-17h15.5c11.1,0,16.5,7,16.5,17c0,1.2-0.8,2-2.1,2h-8.2
		c-1.3,0-2.1-0.4-2.1-1.2V42c0-4.2-1.5-4.7-4.1-4.7h-15.5c-2.6,0-4.1,0.5-4.1,4.7v16c0,4.2,1.7,4.7,4.1,4.7h15.5
		c2.4,0,4.1-0.5,4.1-4.7v-1c0-1.3,0.8-2.1,2.1-2.1h8.2c1.3,0,2.1,0.5,2.1,1.3v1.4c0,9.9-5.4,16.9-16.5,16.9h-15.5
		C175.8,74.5,170.4,67.5,170.4,57.6L170.4,57.6z"/>
	<path class="st0" d="M264,61.9l7,10.1c1,1.5,0.4,2.5-1.3,2.5h-9.4c-1.1,0-2-0.4-2.5-1.4l-6.1-9.8h-13.3v9.1c0,1.3-0.8,2.1-2.1,2.1
		h-8.2c-1.3,0-2.1-0.8-2.1-2.1V27.5c0-1.3,0.8-2.1,2.1-2.1h25.2c13.9,0,19.9,6.5,19.9,18.4v1.3C273.2,53.2,270.6,59.3,264,61.9
		L264,61.9z M238.4,51.6h13.9c5.2,0,8.5-0.7,8.5-6.6v-1.1c0-5.9-3.1-6.7-8.5-6.7h-13.9L238.4,51.6L238.4,51.6z"/>
	<path class="st0" d="M280.4,72.4V27.5c0-1.3,0.8-2.1,2.1-2.1h37.3c1.3,0,2.1,0.8,2.1,2.1v7.6c0,1.3-0.8,2.1-2.1,2.1h-27.1v7.2h16.5
		c1.3,0,2.1,0.8,2.1,2.1v6.5c0,1.3-0.8,2.1-2.1,2.1h-16.5v7.5h27.1c1.3,0,2.1,0.8,2.1,2.1v7.6c0,1.3-0.8,2.1-2.1,2.1h-37.3
		C281.1,74.5,280.4,73.7,280.4,72.4L280.4,72.4z"/>
	<path class="st0" d="M326.9,60.1c-0.1-1.4,0.8-2.2,2.1-2.2h8.3c1.2,0,1.8,0.7,2.1,2c0.5,1.9,1.7,2.7,3.9,2.7h14
		c3.1,0,4.4-0.8,4.4-3.3s-1.1-3.4-4-3.6L342,54.5c-10.6-0.8-14.8-4.8-14.8-14s4.7-15.1,16.5-15.1h13.1c10.5,0,15.7,5.1,16.4,14.4
		c0.1,1.4-0.8,2.2-2.1,2.2h-8.3c-1.2,0-1.8-0.7-2.1-2c-0.5-1.9-1.7-2.7-3.9-2.7h-12.9c-3.1,0-4.4,0.8-4.4,3.3s1.1,3.3,4,3.5
		l15.7,1.2c10.6,0.8,14.8,4.9,14.8,14.1s-4.7,15.1-16.5,15.1h-14.1C332.8,74.5,327.6,69.3,326.9,60.1L326.9,60.1z"/>
	<path class="st0" d="M393.5,72.4V37.3h-13.3c-1.3,0-2.1-0.8-2.1-2.1v-7.7c0-1.3,0.8-2.1,2.1-2.1h39c1.3,0,2.1,0.8,2.1,2.1v7.7
		c0,1.3-0.8,2.1-2.1,2.1H406v35.1c0,1.3-0.8,2.1-2.1,2.1h-8.3C394.3,74.5,393.6,73.7,393.5,72.4L393.5,72.4z"/>
</g>
<path class="st1" d="M13,63.2h146.7c0.5,0,0.9,0.4,0.9,0.9v9.5c0,0.5-0.4,0.9-0.9,0.9H13c-0.5,0-0.9-0.4-0.9-0.9v-9.5
	C12,63.6,12.5,63.2,13,63.2z"/>
<path class="st1" d="M27.3,32.5c-0.8,3.4-2.5,7.9-6.5,9.5c-0.5,0.2-0.5,0.9,0,1.1c4,1.5,5.7,6.1,6.5,9.5c0.1,0.6,1,0.6,1.1,0
	c0.8-3.4,2.5-7.9,6.5-9.5c0.5-0.2,0.5-0.9,0-1.1c-4-1.5-5.7-6.1-6.5-9.5C28.3,31.9,27.5,31.9,27.3,32.5z"/>
</svg>
