<?xml version="1.0" encoding="UTF-8"?>
<svg id="Layer_1" data-name="Layer 1" xmlns="http://www.w3.org/2000/svg" viewBox="0 0 444.08 89.34">
  <defs>
    <style>
      .cls-1 {
        fill: #0a4c61;
      }

      .cls-1, .cls-2 {
        stroke-width: 0px;
      }

      .cls-2 {
        fill: #ffc857;
      }
    </style>
  </defs>
  <g>
    <path class="cls-1" d="m12.04,47.25v-9.42c0-6.19,3.31-10.5,10.19-10.5h11.31c6.88,0,10.2,4.3,10.2,10.5v9.42c0,6.15-3.31,10.45-10.2,10.45h-11.31c-6.88,0-10.19-4.3-10.19-10.45Z"/>
    <path class="cls-1" d="m72.44,43.08v13.33c0,.82-.47,1.29-1.29,1.29h-4.65c-.82,0-1.29-.47-1.29-1.29v-14.15c0-1.63-.6-2.02-1.85-2.02h-5.94c-1.25,0-1.85.39-1.85,2.02v14.15c0,.82-.47,1.29-1.29,1.29h-4.65c-.82,0-1.29-.47-1.29-1.29v-21.59c0-.82.47-1.29,1.29-1.29h4.65c.82,0,1.29.43,1.29,1.25v1.29c1.08-1.63,2.88-2.54,5.72-2.54h2.24c6.67,0,8.9,3.66,8.9,9.55Z"/>
    <path class="cls-1" d="m88.58,48.58v-8.6h-.99c-.82,0-1.29-.47-1.29-1.29v-3.87c0-.82.47-1.29,1.29-1.29,2.58-.08,3.1-.6,3.18-4.82,0-.9.47-1.38,1.29-1.38h2.45c.82,0,1.29.47,1.29,1.29v4.9h7.66c.82,0,1.29.47,1.29,1.29v3.87c0,.82-.47,1.29-1.29,1.29h-7.66v9.42c0,1.33.52,1.81,2.32,1.81h5.33c.82,0,1.29.47,1.29,1.29v3.92c0,.82-.47,1.29-1.29,1.29h-5.33c-7.79,0-9.55-3.1-9.55-9.12Z"/>
    <path class="cls-1" d="m132.59,43.08v13.33c0,.82-.47,1.29-1.29,1.29h-4.65c-.82,0-1.29-.47-1.29-1.29v-14.15c0-1.63-.6-2.02-1.85-2.02h-5.94c-1.25,0-1.85.39-1.85,2.02v14.15c0,.82-.47,1.29-1.29,1.29h-4.65c-.82,0-1.29-.47-1.29-1.29v-30.07c0-.82.47-1.29,1.29-1.29h4.65c.82,0,1.29.47,1.29,1.29v9.72c1.08-1.63,2.88-2.54,5.72-2.54h2.24c6.67,0,8.9,3.66,8.9,9.55Z"/>
    <path class="cls-1" d="m136.68,48.15v-5.21c0-5.72,2.24-9.42,8.91-9.42h6.06c6.67,0,8.9,3.7,8.9,9.42v3.83c0,.82-.47,1.29-1.29,1.29h-15.36v.9c0,1.64.6,2.02,1.85,2.02h11.57c.82,0,1.29.47,1.29,1.29v4.13c0,.82-.47,1.29-1.29,1.29h-11.74c-6.67,0-8.91-3.66-8.91-9.55Zm16.65-5.03v-.86c0-1.63-.56-2.02-1.85-2.02h-5.72c-1.29,0-1.85.39-1.85,2.02v.86h9.42Z"/>
  </g>
  <g>
    <path class="cls-1" d="m170.44,57.59v-15.22c0-10,5.35-16.95,16.47-16.95h15.49c11.12,0,16.47,6.95,16.47,16.95,0,1.25-.76,1.95-2.08,1.95h-8.2c-1.32,0-2.08-.42-2.08-1.18v-1.18c0-4.24-1.46-4.72-4.1-4.72h-15.49c-2.64,0-4.1.49-4.1,4.72v16.05c0,4.17,1.67,4.66,4.1,4.66h15.49c2.43,0,4.1-.49,4.1-4.66v-1.04c0-1.32.76-2.08,2.08-2.08h8.2c1.32,0,2.08.49,2.08,1.32v1.39c0,9.94-5.35,16.88-16.47,16.88h-15.49c-11.12,0-16.47-6.95-16.47-16.88Z"/>
    <path class="cls-1" d="m264.02,61.9l7.02,10.07c.97,1.46.35,2.5-1.32,2.5h-9.38c-1.11,0-1.95-.42-2.5-1.39l-6.11-9.8h-13.34v9.1c0,1.32-.76,2.08-2.08,2.08h-8.2c-1.32,0-2.08-.76-2.08-2.08V27.51c0-1.32.76-2.08,2.08-2.08h25.22c13.89,0,19.87,6.53,19.87,18.41v1.32c0,7.99-2.64,14.1-9.17,16.74Zm-25.64-10.28h13.89c5.21,0,8.48-.7,8.48-6.6v-1.11c0-5.9-3.06-6.67-8.48-6.67h-13.89v14.38Z"/>
    <path class="cls-1" d="m280.36,72.39V27.51c0-1.32.76-2.08,2.08-2.08h37.31c1.32,0,2.08.76,2.08,2.08v7.64c0,1.32-.76,2.08-2.08,2.08h-27.1v7.23h16.47c1.32,0,2.08.76,2.08,2.08v6.53c0,1.32-.76,2.08-2.08,2.08h-16.47v7.5h27.1c1.32,0,2.08.76,2.08,2.08v7.64c0,1.32-.76,2.08-2.08,2.08h-37.31c-1.32,0-2.08-.76-2.08-2.08Z"/>
    <path class="cls-1" d="m326.92,60.09c-.07-1.39.76-2.15,2.08-2.15h8.27c1.25,0,1.81.7,2.15,2.02.49,1.87,1.74,2.71,3.89,2.71h13.96c3.06,0,4.38-.84,4.38-3.33s-1.11-3.41-3.96-3.61l-15.7-1.18c-10.63-.83-14.8-4.79-14.8-14.03s4.72-15.08,16.47-15.08h13.06c10.49,0,15.7,5.14,16.4,14.38.07,1.39-.76,2.15-2.08,2.15h-8.27c-1.25,0-1.81-.7-2.15-2.01-.49-1.88-1.74-2.71-3.89-2.71h-12.92c-3.06,0-4.38.83-4.38,3.33s1.11,3.33,3.96,3.54l15.7,1.18c10.56.76,14.8,4.93,14.8,14.1s-4.73,15.08-16.47,15.08h-14.1c-10.49,0-15.7-5.14-16.4-14.38Z"/>
    <path class="cls-1" d="m393.55,72.39v-35.08h-13.27c-1.32,0-2.08-.76-2.08-2.08v-7.71c0-1.32.76-2.08,2.08-2.08h38.97c1.32,0,2.08.76,2.08,2.08v7.71c0,1.32-.76,2.08-2.08,2.08h-13.27v35.08c0,1.32-.76,2.08-2.08,2.08h-8.27c-1.32,0-2.08-.76-2.08-2.08Z"/>
  </g>
  <rect class="cls-2" x="12.04" y="63.18" width="148.52" height="11.29" rx=".92" ry=".92"/>
  <path class="cls-2" d="m27.32,32.47c-.76,3.42-2.5,7.94-6.49,9.5-.51.2-.51.9,0,1.1,3.99,1.55,5.74,6.08,6.49,9.5.14.62,1.01.62,1.15,0,.76-3.42,2.5-7.94,6.49-9.5.51-.2.51-.9,0-1.1-3.99-1.55-5.74-6.08-6.49-9.5-.14-.62-1.01-.62-1.15,0Z"/>
</svg>